<?xml version="1.0" standalone="no"?>
<!DOCTYPE svg PUBLIC "-//W3C//DTD SVG 20010904//EN"
 "http://www.w3.org/TR/2001/REC-SVG-20010904/DTD/svg10.dtd">
<svg version="1.0" xmlns="http://www.w3.org/2000/svg"
 width="1756.000000pt" height="988.000000pt" viewBox="0 0 1756.000000 988.000000"
 preserveAspectRatio="xMidYMid meet">

<g transform="translate(0.000000,988.000000) scale(0.100000,-0.100000)"
fill="#000000" stroke="none">
<path d="M5605 6676 c-256 -68 -474 -231 -565 -420 -46 -96 -119 -321 -185
-571 -159 -602 -356 -1160 -433 -1229 -24 -20 -9 -25 -139 44 -97 51 -285 52
-438 3 -81 -25 -172 -71 -210 -104 -95 -84 -215 -284 -249 -415 -31 -119 -10
-391 41 -546 96 -290 335 -419 778 -420 311 0 518 65 748 235 80 58 357 322
357 339 0 4 27 41 61 81 191 226 373 569 539 1012 68 183 253 740 324 975 100
334 110 381 111 516 0 120 0 121 -38 195 -74 146 -188 252 -322 300 -94 34
-263 36 -380 5z m323 -271 c87 -35 159 -162 148 -260 -17 -149 -358 -1178
-538 -1625 -224 -556 -552 -967 -902 -1131 -157 -73 -239 -91 -440 -97 -149
-4 -189 -1 -243 13 -74 20 -165 82 -209 142 -15 21 -34 43 -41 49 -21 18 -53
119 -62 193 -14 115 18 293 63 347 8 11 30 42 49 69 42 62 116 119 182 142 57
19 181 21 223 4 49 -21 56 -43 62 -221 9 -216 22 -246 95 -216 83 35 193 192
330 471 180 367 325 767 450 1245 74 281 150 530 181 593 40 79 87 131 169
185 161 108 357 147 483 97z"/>
<path d="M11755 6419 c-238 -55 -405 -170 -485 -333 -80 -162 -79 -291 4 -425
20 -32 36 -64 36 -70 0 -5 -20 -19 -45 -30 -24 -11 -76 -50 -116 -88 -149
-143 -293 -404 -434 -788 -26 -71 -51 -132 -55 -135 -10 -7 -103 -294 -139
-430 -53 -201 -65 -294 -65 -530 -1 -261 3 -273 120 -387 41 -40 79 -73 83
-73 5 0 35 -16 67 -35 145 -88 282 -97 459 -31 174 66 319 142 386 203 81 76
136 189 179 373 122 519 170 702 280 1065 78 257 114 430 106 508 -6 56 -29
114 -67 169 -33 47 -25 71 34 103 106 58 213 193 264 333 21 57 24 80 21 154
-4 75 -9 96 -42 163 -50 101 -129 181 -227 229 -118 58 -259 79 -364 55z m219
-301 c79 -24 175 -152 160 -214 -10 -38 -119 -145 -177 -172 -116 -55 -254
-56 -362 -3 -50 25 -70 42 -90 75 -29 49 -33 112 -11 155 18 34 83 94 128 117
97 51 258 70 352 42z m-243 -817 c31 -12 73 -36 95 -55 35 -30 38 -37 36 -79
-2 -65 -41 -220 -116 -467 -86 -285 -146 -511 -201 -755 -78 -345 -123 -458
-204 -512 -19 -13 -47 -23 -63 -23 -42 0 -98 -26 -138 -65 -44 -43 -77 -55
-148 -55 -100 0 -210 67 -251 154 -49 101 -7 379 124 816 95 315 259 729 340
856 63 98 156 173 255 205 47 16 211 4 271 -20z"/>
<path d="M10135 5780 c-83 -13 -136 -30 -215 -71 -90 -46 -230 -156 -259 -202
-11 -17 -49 -61 -84 -96 l-65 -63 -40 58 c-77 113 -162 174 -311 224 -117 39
-211 42 -316 10 -116 -36 -179 -75 -239 -149 -126 -155 -155 -268 -235 -916
-70 -562 -77 -838 -28 -969 108 -286 420 -478 777 -477 237 0 436 95 655 315
96 96 106 110 348 471 169 252 303 466 439 705 49 85 93 157 98 160 5 3 37 64
72 135 76 157 83 213 49 359 -22 92 -93 273 -114 291 -7 6 -25 28 -42 50 -68
92 -135 134 -258 159 -80 17 -149 19 -232 6z m224 -298 c28 -14 40 -31 66 -92
17 -41 46 -106 64 -144 42 -88 38 -122 -24 -247 -88 -173 -436 -750 -583 -964
-105 -153 -174 -243 -283 -367 -110 -125 -185 -187 -289 -237 -66 -31 -85 -36
-170 -39 -85 -3 -105 -1 -195 28 -195 63 -270 115 -316 220 -23 54 -24 61 -23
315 0 274 15 443 70 825 47 323 83 459 137 525 46 57 80 69 182 70 78 0 98 -4
140 -26 115 -59 152 -157 165 -434 5 -104 12 -217 15 -250 8 -83 36 -279 40
-283 2 -2 73 137 157 310 304 619 376 714 593 784 89 29 204 32 254 6z"/>
<path d="M13768 5657 c-76 -26 -150 -74 -220 -142 -47 -45 -48 -45 -73 -29
-14 9 -29 22 -33 28 -29 46 -176 119 -283 142 -87 19 -231 14 -324 -11 -80
-21 -214 -89 -262 -132 -118 -108 -163 -159 -196 -221 -84 -161 -72 -304 41
-480 27 -42 61 -101 76 -130 l27 -53 -40 -74 c-22 -41 -108 -178 -190 -304
-261 -399 -285 -457 -279 -675 3 -113 7 -138 28 -180 38 -78 143 -176 241
-223 109 -53 172 -68 294 -67 158 0 269 42 393 148 35 30 73 56 83 59 12 3 37
-8 67 -29 120 -86 203 -108 372 -101 226 10 403 97 508 249 59 85 60 102 19
393 -21 143 -44 322 -53 397 l-16 137 84 98 c46 54 100 116 121 138 65 69 165
216 218 320 65 131 86 229 70 329 -12 73 -55 178 -95 231 -12 16 -25 37 -29
46 -10 29 -131 108 -198 131 -45 15 -96 22 -174 25 -96 3 -119 0 -177 -20z
m-573 -313 c65 -32 171 -126 235 -209 38 -49 45 -54 61 -43 9 7 81 65 159 129
77 64 167 131 199 148 97 51 171 39 266 -47 49 -44 65 -77 65 -138 0 -50 -22
-132 -38 -144 -5 -3 -25 -32 -44 -65 -48 -79 -177 -239 -323 -398 -113 -125
-116 -130 -110 -165 27 -168 77 -603 82 -713 l6 -136 -34 -36 c-47 -51 -130
-71 -260 -64 -102 5 -146 20 -175 60 -9 12 -39 85 -68 161 -28 77 -58 142 -64
144 -15 5 -229 -203 -268 -260 -33 -47 -154 -151 -203 -174 -84 -40 -204 -22
-310 46 -123 80 -129 141 -33 334 71 143 170 299 321 509 171 238 181 266 141
421 -27 105 -74 200 -121 244 -52 47 -69 81 -69 132 0 94 98 198 270 285 102
52 127 56 196 30 34 -13 87 -36 119 -51z"/>
<path d="M7165 5590 c-89 -21 -196 -56 -205 -68 -3 -4 -50 -29 -105 -56 -331
-161 -653 -462 -809 -756 -91 -174 -151 -406 -165 -644 -18 -304 26 -482 155
-625 91 -101 218 -176 389 -227 83 -26 103 -28 275 -28 171 -1 195 1 315 29
127 29 136 30 420 31 235 1 303 4 359 18 168 41 286 128 316 235 30 107 99
585 136 946 23 222 23 509 1 598 -48 192 -153 302 -406 425 -53 25 -97 49 -99
54 -2 4 -54 24 -115 44 -103 34 -123 38 -247 40 -106 3 -152 -1 -215 -16z
m355 -281 c108 -30 207 -84 236 -130 20 -33 33 -41 93 -59 81 -24 104 -46 127
-129 33 -112 9 -508 -62 -1001 -45 -316 -76 -398 -174 -454 -51 -29 -62 -31
-150 -31 -82 0 -103 4 -151 26 -32 15 -67 37 -80 50 -29 29 -88 32 -114 6 -29
-29 -138 -77 -217 -94 -54 -12 -125 -16 -273 -16 -302 0 -417 31 -507 138 -74
88 -91 144 -96 310 -6 229 44 480 133 660 121 246 416 504 746 653 207 93 341
112 489 71z"/>
<path d="M7062 4423 c-248 -152 -401 -312 -371 -390 35 -93 162 -133 245 -77
44 30 51 38 103 116 75 111 144 325 120 369 -14 27 -27 24 -97 -18z"/>
</g>
</svg>
